<svg id="Calque_1" data-name="Calque 1" xmlns="http://www.w3.org/2000/svg" viewBox="0 0 59.497 49.711"><path d="M138.823,226.913h-1.36l7.611-21.091h1.483l7.61,21.091h-1.359l-6.941-19.433h-.1Zm1.926-7.94h10.133v1.194H140.749Z" transform="translate(-137.463 -205.822)"/><path d="M159.143,205.822h1.524L167.309,216h.144l6.643-10.175h1.524l-7.59,11.524v9.567h-1.3v-9.567Z" transform="translate(-137.463 -205.822)"/><path d="M185.375,226.913V205.822h1.287v19.9h10.3v1.2Z" transform="translate(-137.463 -205.822)"/><path d="M137.463,255.245V234.154h1.287v19.9h10.3v1.195Z" transform="translate(-137.463 -205.822)"/><path d="M172.773,244.7a13.386,13.386,0,0,1-1.133,5.7,8.994,8.994,0,0,1-3.146,3.784,8.656,8.656,0,0,1-9.289,0,9.03,9.03,0,0,1-3.146-3.79,14.834,14.834,0,0,1,0-11.384,9.078,9.078,0,0,1,3.146-3.785,8.642,8.642,0,0,1,9.284,0A8.994,8.994,0,0,1,171.64,239,13.384,13.384,0,0,1,172.773,244.7Zm-1.256,0a12.162,12.162,0,0,0-.984-5.087,7.881,7.881,0,0,0-2.714-3.332,7.281,7.281,0,0,0-7.929-.01,7.8,7.8,0,0,0-2.714,3.326,13.722,13.722,0,0,0-.01,10.175,7.833,7.833,0,0,0,2.7,3.342,7.272,7.272,0,0,0,7.95,0,7.872,7.872,0,0,0,2.714-3.331A12.163,12.163,0,0,0,171.517,244.7Z" transform="translate(-137.463 -205.822)"/><path d="M196.96,234.154v21.091H195.7l-13.45-18.754h-.124v18.754h-1.287V234.154h1.267l13.45,18.774h.123V234.154Z" transform="translate(-137.463 -205.822)"/></svg>